<?xml version="1.0" encoding="utf-8"?>
<!-- Generator: Adobe Illustrator 19.0.0, SVG Export Plug-In . SVG Version: 6.00 Build 0)  -->
<svg version="1.1" id="Layer_1" xmlns="http://www.w3.org/2000/svg" xmlns:xlink="http://www.w3.org/1999/xlink" x="0px" y="0px"
	 viewBox="-127 159 535.2 340" style="enable-background:new -127 159 535.2 340;" xml:space="preserve">
<style type="text/css">
	.st0{fill:#FFFFFF;}
	.st1{opacity:0.65;}
	.st2{fill:#093B4C;}
	.st3{opacity:0.65;clip-path:url(#SVGID_2_);}
	.st4{clip-path:url(#SVGID_4_);}
	.st5{clip-path:url(#SVGID_6_);}
	.st6{clip-path:url(#SVGID_8_);}
	.st7{opacity:0.65;clip-path:url(#SVGID_10_);}
	.st8{clip-path:url(#SVGID_12_);}
	.st9{clip-path:url(#SVGID_14_);}
	.st10{clip-path:url(#SVGID_16_);}
</style>
<g>
	<g>
		<path class="st0" d="M134,448.6c-0.1,0.1-0.1,0.1-0.2,0.1L134,448.6z M151.4,378.1C151.4,378.1,151.5,378.1,151.4,378.1
			C151.5,378.1,151.4,378.1,151.4,378.1"/>
	</g>
	<g class="st1">
		<g>
			<g>
				<path class="st2" d="M188.6,282.4h-87.1c-1.6,0-3-1.3-3.1-2.9l-3.8-65c0-0.8,0.3-1.7,0.8-2.3c0.6-0.6,1.4-1,2.2-1h110
					c1,0,1.9,0.5,2.4,1.2c0.6,0.8,0.8,1.8,0.5,2.7l-19.1,65C191.1,281.5,189.9,282.4,188.6,282.4z M104.4,276.3h81.9l17.3-58.9
					H100.9L104.4,276.3z"/>
			</g>
			<g>
				<path class="st2" d="M97.7,217.4c-1.5,0-2.8-1-3-2.5l-2.2-12.8h-15c-1.7,0-3.1-1.4-3.1-3.1s1.4-3.1,3.1-3.1h17.6
					c1.5,0,2.8,1.1,3,2.5l2.7,15.3c0.3,1.7-0.8,3.2-2.5,3.5C98.1,217.4,97.9,217.4,97.7,217.4z"/>
			</g>
			<g>
				<path class="st2" d="M103.5,312.5c-3.9,0-7.3-1.5-9.6-4.3c-2.4-2.8-3.3-6.5-2.6-10.4c1.3-7.6,8.4-13.6,16.1-13.6
					c3.9,0,7.3,1.5,9.6,4.3c2.4,2.8,3.3,6.5,2.6,10.4C118.2,306.6,111.2,312.5,103.5,312.5z M107.4,290.3c-4.6,0-9.2,3.9-10,8.6
					c-0.4,2.1,0.1,4,1.2,5.4c1.1,1.4,2.9,2.1,4.9,2.1c4.6,0,9.2-3.9,10-8.6c0,0,0,0,0,0c0.4-2.1-0.1-4-1.2-5.4
					C111.2,291.1,109.4,290.3,107.4,290.3z"/>
			</g>
			<g>
				<path class="st2" d="M177.5,312.5c-3.9,0-7.2-1.5-9.6-4.3c-2.4-2.8-3.3-6.5-2.6-10.4c1.3-7.6,8.4-13.6,16.1-13.6
					c3.9,0,7.3,1.5,9.6,4.3c2.4,2.8,3.3,6.5,2.6,10.4C192.3,306.6,185.2,312.5,177.5,312.5z M181.4,290.3c-4.6,0-9.2,3.9-10,8.6
					c-0.4,2.1,0.1,4,1.3,5.4c1.1,1.4,2.9,2.1,4.9,2.1c4.6,0,9.2-3.9,10.1-8.6c0,0,0,0,0,0c0.4-2.1-0.1-4-1.2-5.4
					C185.2,291.1,183.5,290.3,181.4,290.3z"/>
			</g>
			<g>
				<path class="st2" d="M115,282.4c-0.1,0-0.2,0-0.2,0c-1.7-0.1-2.9-1.6-2.8-3.3l4.9-62.8c0.1-1.7,1.6-2.9,3.3-2.8
					c1.7,0.1,2.9,1.6,2.8,3.3l-4.9,62.8C117.9,281.2,116.5,282.4,115,282.4z"/>
			</g>
			<g>
				<path class="st2" d="M134.8,282.4c-0.1,0-0.2,0-0.4,0c-1.7-0.2-2.9-1.7-2.7-3.4l7.5-62.8c0.2-1.7,1.7-2.9,3.4-2.7
					c1.7,0.2,2.9,1.7,2.7,3.4l-7.5,62.8C137.6,281.3,136.3,282.4,134.8,282.4z"/>
			</g>
			<g>
				<path class="st2" d="M154.6,282.4c-0.2,0-0.3,0-0.5,0c-1.7-0.3-2.8-1.8-2.5-3.5l10-62.8c0.3-1.7,1.8-2.8,3.5-2.5
					c1.7,0.3,2.8,1.8,2.5,3.5l-10,62.8C157.4,281.4,156.1,282.4,154.6,282.4z"/>
			</g>
			<g>
				<path class="st2" d="M174.4,282.4c-0.2,0-0.4,0-0.6-0.1c-1.7-0.3-2.7-1.9-2.4-3.6L184,216c0.3-1.7,1.9-2.7,3.6-2.4
					c1.7,0.3,2.7,1.9,2.4,3.6L177.4,280C177.1,281.4,175.8,282.4,174.4,282.4z"/>
			</g>
			<g>
				<path class="st2" d="M202,236.8H98.6c-1.7,0-3.1-1.4-3.1-3.1s1.4-3.1,3.1-3.1H202c1.7,0,3.1,1.4,3.1,3.1S203.7,236.8,202,236.8z
					"/>
			</g>
			<g>
				<path class="st2" d="M195.6,260.5H99.7c-1.7,0-3.1-1.4-3.1-3.1s1.4-3.1,3.1-3.1h95.9c1.7,0,3.1,1.4,3.1,3.1
					S197.3,260.5,195.6,260.5z"/>
			</g>
			<g>
				<defs>
					<rect id="SVGID_1_" x="99.4" y="159" width="108.2" height="48.7"/>
				</defs>
				<clipPath id="SVGID_2_">
					<use xlink:href="#SVGID_1_"  style="overflow:visible;"/>
				</clipPath>
				<g class="st3">
					<g>
						<defs>
							<rect id="SVGID_3_" x="103.2" y="164.1" width="46" height="58.6"/>
						</defs>
						<clipPath id="SVGID_4_">
							<use xlink:href="#SVGID_3_"  style="overflow:visible;"/>
						</clipPath>
						<g class="st4">
							<path class="st2" d="M149.1,207.5l-10.2-41.3c-0.2-0.8-0.7-1.4-1.4-1.7c-0.7-0.4-1.5-0.4-2.2-0.1l-30.5,12
								c-1.2,0.5-1.9,1.8-1.6,3.1l10.2,41.3c0.2,0.7,0.7,1.4,1.4,1.7c0.4,0.2,0.8,0.3,1.2,0.3c0.3,0,0.7-0.1,1-0.2l30.5-12
								C148.7,210.1,149.4,208.8,149.1,207.5"/>
						</g>
					</g>
				</g>
				<g class="st3">
					<g>
						<defs>
							<rect id="SVGID_5_" x="131.1" y="167.2" width="44.9" height="57.2"/>
						</defs>
						<clipPath id="SVGID_6_">
							<use xlink:href="#SVGID_5_"  style="overflow:visible;"/>
						</clipPath>
						<g class="st5">
							<path class="st2" d="M175.6,171.7c-0.4-0.6-1.1-1.1-1.8-1.2l-24.7-3.4c-1.2-0.2-2.4,0.6-2.8,1.8l-15.1,48.7
								c-0.2,0.7-0.1,1.5,0.3,2.1c0.4,0.6,1.1,1.1,1.8,1.2l24.7,3.4c0.1,0,0.2,0,0.4,0c1.1,0,2.1-0.7,2.4-1.8l15.1-48.7
								C176.1,173.2,176,172.4,175.6,171.7"/>
						</g>
					</g>
				</g>
				<g class="st3">
					<g>
						<defs>
							<rect id="SVGID_7_" x="153.7" y="180.5" width="46.1" height="41.1"/>
						</defs>
						<clipPath id="SVGID_8_">
							<use xlink:href="#SVGID_7_"  style="overflow:visible;"/>
						</clipPath>
						<g class="st6">
							<path class="st2" d="M199,181.2c-0.5-0.5-1.3-0.8-2-0.7l-38.9,4.2c-1.2,0.1-2.2,1.1-2.3,2.3l-2.2,31.9c0,0.7,0.2,1.5,0.8,2
								c0.5,0.5,1.1,0.7,1.8,0.7c0.1,0,0.2,0,0.3,0l38.9-4.2c1.2-0.1,2.2-1.1,2.3-2.4l2.1-31.9C199.8,182.5,199.6,181.7,199,181.2"
								/>
						</g>
					</g>
				</g>
			</g>
		</g>
		<g>
			<g>
				<polygon class="st2" points="335.4,483 363.6,482.8 368.4,474.5 340.2,474.7 				"/>
			</g>
			<g>
				<g>
					<path class="st2" d="M8.8,329.4c2,0.4,2.4,1.3,1,2.8c-0.9,1.1-2.1,1.9-3.7,2.6c-5.7,2.6-10.6,3.6-14.9,2.8
						c-4.2-0.9-8.6-1.5-13.2-1.9c-12.7,42.6-20.9,80.1-24.6,112.7c-0.3,2.8-3.9,4.9-10.9,6.2c-2.7,0.5-5.1,0.7-7.1,0.6
						c-2.2-0.1-3.2-0.5-3.2-1.1c3.8-34.4,12.6-74,26.2-118.9c-3.2,0.1-6.1,0.4-8.9,0.7c-2.2,0.3-4.1,0.5-5.6,0.8
						c-1.5,0.3-2.6,0.5-3.4,0.6c-0.1,0.1-0.3,0.1-0.4,0.1c-0.1,0.1-0.2,0.1-0.3,0.1c-7,1.7-10.7,1.5-11.2-0.4
						c-0.7-2.4,2.6-4.4,9.7-6c10-2.3,20.2-3.8,30.5-4.4c1.1-0.3,2.1-0.5,3.1-0.7c4.6-0.8,7.4-0.6,8.3,0.5
						C-9.9,326.6-0.4,327.6,8.8,329.4z"/>
				</g>
				<g>
					<path class="st2" d="M-15.3,380.3c0.1-0.7,1.2-1.5,3.4-2.5c2-0.9,4.1-1.6,6.5-2c4.8-0.9,7.1-0.4,6.8,1.5
						c-2.2,11.9-5,24.4-8.4,37.3c-1.7,6.2-3.4,12.3-5.2,18.4c-2.5,8.5-3.6,13.8-3.2,15.9c0.4,2-2.3,3.7-7.9,5.1
						c-5.6,1.4-8.6,1.2-9-0.6c-0.5-2.3,0.7-8.1,3.4-17.4c2-6.8,3.8-12.9,5.2-18.4C-20.2,404.4-17.4,392-15.3,380.3z M-17.3,357.1
						c-1.1-0.7-0.6-1.6,1.3-2.9c1.2-0.7,2.4-1.4,3.8-1.8c2.2-0.8,4.4-1.3,6.6-1.5c2.1-0.2,3.5,0,4.3,0.5c2.3,1.5,4.2,3.1,5.8,4.7
						c1.4,1.4-0.3,3-5.1,4.7c-2.2,0.8-4.4,1.3-6.6,1.5c-2.3,0.2-3.8,0.1-4.3-0.5C-13.1,360.2-15,358.7-17.3,357.1z"/>
				</g>
				<g>
					<path class="st2" d="M55.7,388.4c0.5,6.2-0.7,13.9-3.8,22.9c-0.4,1.1-2.2,2.2-5.4,3.4c-2.6,0.9-4.8,1.4-6.6,1.4
						c-1.2,0.1-4.4,0.1-9.8,0c-4.1,0-7.4,0.1-9.8,0.4c-0.8,4.2-1.4,9-1.7,14.2c-0.3,5.8-0.1,10.1,0.6,12.7c0.6,2.4,1.5,4.1,2.5,5
						c1.2-1,2.1-2,2.9-2.9c3.3-4.1,5.3-8.4,6-12.7c0.1-0.7,1.3-1.6,3.5-2.6c1.9-0.9,4.1-1.6,6.4-2c4.8-0.8,7.1-0.3,6.8,1.6
						c-1.2,6.9-4.9,12.9-11.1,18c-3.6,3-7.3,5.1-11.2,6.4c-6.5,2.2-11.5,2.8-15.1,1.9c-5.5-1.4-8.3-6.5-8.3-15.3
						C1.6,435.5,2,429.3,3,422.4c1.9-12,4.6-21.1,8.1-27.3c2.3-5,4.8-8.9,7.7-11.8c4.2-4.1,9.8-6.8,16.8-8.1
						c7.6-1.4,12.8-0.6,15.6,2.2C53.9,379.9,55.4,383.6,55.7,388.4z M18.7,450.7c-0.1,0.1-0.1,0.1-0.2,0.1L18.7,450.7z M21.4,410.8
						c4-0.6,9.1-1,15.3-1.1c2-7.3,2.6-13.1,2.1-17.4c-0.5-4.9-1.8-8.2-3.9-9.8c-0.3-0.2-0.6-0.4-0.8-0.5c-0.3,0.3-0.4,0.3-0.2,0.2
						c-0.6,0.6-1.2,1.3-1.6,1.9c-1.3,1.8-2.4,3.7-3.4,5.6c-2.1,4.3-3.9,8.4-5.4,12.4C22.7,405,22,407.8,21.4,410.8z M36.1,380.2
						C36.1,380.2,36.2,380.2,36.1,380.2C36.2,380.2,36.1,380.2,36.1,380.2z"/>
				</g>
				<g>
					<path class="st2" d="M116.6,381.3c2.1,5.1,2.9,11.9,2.4,20.3c-0.4,5.9-1.4,13.4-2.9,22.3c-4.4,24.5-7.8,41.1-10.2,49.7
						c-0.2,0.7-1.3,1.5-3.5,2.5c-2,0.9-4.1,1.6-6.4,2c-5.1,1-7.4,0.4-6.8-1.5c2.4-8.6,5.7-24.8,10-48.8c3.1-17.2,3.8-29.4,2.1-36.6
						c-1.2,1.1-2.2,2.3-3.2,3.4c-3.8,4.6-7.5,10.6-11.4,18.3c-3.7,7.3-8.8,20.1-15.5,38.4c-0.6,1.7-3.6,3.1-9,4.2
						c-5.3,1.2-8,1-7.9-0.4c0.7-9.4,2.9-21.9,6.7-37.4c4.3-18,7-30.4,8-37.1c0.3-1.9,2.9-3.5,7.8-4.8c1.3-0.4,3-0.6,4.9-0.8
						c3-0.3,4.4,0.1,4.3,1c-0.9,5.9-2.3,12.8-4.1,20.8c1.3-1.6,2.7-3.2,4.1-4.5c6.4-6.1,14.2-10,23.5-11.8
						C113.7,379.7,116,380,116.6,381.3z"/>
				</g>
				<g>
					<path class="st2" d="M181.8,335.9c5.1-0.9,7.3-0.4,6.8,1.6c-3.9,12.8-11.7,50.2-23.5,112.4c-0.2,0.7-1.3,1.6-3.5,2.6
						c-2,0.9-4.1,1.6-6.4,2c-1.3,0.2-2.4,0.3-3.3,0.4c-8.9,3.8-16.4,4.1-22.6,0.9c-5.5-2.8-9-7.5-10.7-14
						c-2.4-9.3-1.6-20.8,2.5-34.4c4.4-14.7,11-24.5,19.7-29.5c5-2.9,10.2-4.6,15.8-5.2c2.6-0.3,5-0.1,7,0.6
						c2.6-12,5.5-22.9,8.5-32.9c0.2-0.7,1.4-1.6,3.4-2.6C177.2,337,179.4,336.3,181.8,335.9z M135.1,436.8c1.5,5.7,4.2,9.8,8.1,12.2
						c0.7,0.5,1.4,0.9,2.1,1.2l0.3-0.4c0.8-1.1,2.1-2,3.8-2.8c0.8-4.5,2.4-12.9,4.5-25.3c1.9-10.7,3.4-19.2,4.6-25.4
						c-1.9-0.1-2.8-0.4-2.9-1.2c-0.7-6.9-2.4-11.6-5.1-14c-0.2-0.2-0.3-0.3-0.4-0.3c-0.6,0.5-1.1,1-1.5,1.4
						c-5.3,5.7-9.4,14.3-12.2,25.8c-2.8,11.7-4.2,17.5-4.2,17.5S133.2,429.3,135.1,436.8z"/>
				</g>
				<g>
					<path class="st2" d="M230.6,342.7c2.2,0,3.3,0.3,3.3,1c0,13.4-0.8,33.4-2.3,60.1c-1.6,26.7-2.4,46.8-2.4,60.1
						c0,2.2-2.8,3.9-8.5,5.1c-2.2,0.5-4.2,0.7-5.9,0.6c-1.7-0.1-2.6-0.4-2.6-1c0-11.4,0.4-25.2,1.3-41.4c-2.8-0.5-6.9-0.4-12.3,0.2
						c-1.5,0.2-3.4,0.2-5.7,0.1c-2.1,6.5-4.2,13.5-6.3,20.9c-0.2,0.7-1.4,1.6-3.5,2.5c-2,1-4.1,1.6-6.4,2.1
						c-5.1,0.9-7.4,0.4-6.8-1.6c2.5-8.9,5-17.1,7.5-24.7c-0.5,0-1,0-1.4,0c-0.4,0-1.1,0.1-2.2,0.2c-3.7,2.1-7.5,3-11.5,2.9
						c-1.6-0.1-2.5-0.4-2.7-1.2c-0.2-0.8,0.4-1.6,1.7-2.5c5-3.1,11.1-5,18.3-5.9c2.9-8.3,6-16.2,9.2-23.6c1.4-3.2,3.3-7.5,5.7-13.1
						c2.8-6.2,4.7-10.6,5.8-13.1c6-13.7,9.8-21.6,11.4-23.5c1.6-2.2,5-3.7,9.9-4.6C227,341.8,229.2,341.9,230.6,342.7z M209.6,420.6
						c1.5-0.2,3-0.3,4.3-0.4c1.4-25.2,2.2-40.3,2.4-45.4c-4.2,9.5-7,15.8-8.3,18.8c-3.5,8.2-6.9,17-10.1,26.4
						C204.9,420.5,208.8,420.7,209.6,420.6z"/>
				</g>
				<g>
					<path class="st2" d="M311.1,359.5c4.2,11.3,3.3,23.4-2.7,36.2c-6.5,13.7-16.3,22.1-29.6,25.3c-6.6,1.6-12.3,2-17.2,1.3
						c-0.5,2.1-1.1,4.1-1.6,6c-3.5,12.3-5.5,20-5.7,23.3c-0.2,2.3-3.1,3.9-8.7,5c-2.2,0.4-4.1,0.5-5.7,0.5c-1.7-0.1-2.6-0.4-2.5-1
						c0.3-3.9,2.2-11.8,5.6-23.8c1.7-5.9,3.5-14.2,5.3-24.7c4.3-25.2,7.8-41.8,10.2-49.7c0.3-0.7,1.4-1.6,3.5-2.6
						c2-0.9,4.1-1.6,6.5-2c5.1-0.9,7.4-0.4,6.8,1.6c-2.5,7.9-5.8,24.1-10,48.6c-0.1,0.2-0.1,0.5-0.2,0.9c-0.1,0.4-0.2,0.7-0.2,1
						c0.7,0.2,1.1,0.5,1.2,1c0.6,5.5,3.5,8.6,8.7,9.5c0.6,0.1,1.4,0.2,2.1,0.2c0-0.1,0.2-0.1,0.6-0.1c0.2-0.1,0.3-0.1,0.4-0.2
						c0.2-0.1,0.2-0.1,0.1,0c0.5-0.3,0.9-0.6,1.2-0.8c9.2-6.5,14.8-16.5,16.7-30c0.9-6.5,0.6-12.4-0.9-18c-1.7-6.5-5-11.4-9.7-14.8
						c-4.3-3-9.3-4.5-14.9-4.5c-0.7,0-1.1,0-1.1,0c-1,0.1-1.8,0.1-2.3,0.2c-0.7,0.1-1.1,0.2-1.2,0.2c-0.8,0.1-1.5,0.2-2,0.3
						c-0.5,0.1-1,0.2-1.5,0.3c-0.1,0-0.4,0.1-0.8,0.2c-0.4,0.1-0.6,0.2-0.6,0.2c-1.5,0.4-3,0.8-4.4,1.3c-5.6,1.7-8.7,1.6-9.2-0.2
						c-0.4-1.5,2.3-3.2,7.9-4.8c9.7-3,18.5-4.4,26.4-4.3c6.9,0.1,12.9,1.7,18,4.7C304.9,348.7,308.8,353.4,311.1,359.5z"/>
				</g>
				<g>
					<path class="st2" d="M377.6,359.5c4.2,11.3,3.3,23.4-2.7,36.2c-6.5,13.7-16.3,22.1-29.6,25.3c-6.6,1.6-12.3,2-17.2,1.3
						c-0.5,2.1-1.1,4.1-1.6,6c-3.5,12.3-5.5,20-5.7,23.3c-0.2,2.3-3.1,3.9-8.7,5c-2.2,0.4-4.1,0.5-5.7,0.5c-1.7-0.1-2.6-0.4-2.5-1
						c0.3-3.9,2.2-11.8,5.6-23.8c1.7-5.9,3.5-14.2,5.3-24.7c4.3-25.2,7.8-41.8,10.2-49.7c0.3-0.7,1.4-1.6,3.5-2.6
						c2-0.9,4.1-1.6,6.5-2c5.1-0.9,7.4-0.4,6.8,1.6c-2.5,7.9-5.8,24.1-10,48.6c-0.1,0.2-0.1,0.5-0.2,0.9c-0.1,0.4-0.2,0.7-0.2,1
						c0.7,0.2,1.1,0.5,1.2,1c0.6,5.5,3.5,8.6,8.7,9.5c0.6,0.1,1.4,0.2,2.1,0.2c0-0.1,0.2-0.1,0.6-0.1c0.2-0.1,0.3-0.1,0.4-0.2
						c0.2-0.1,0.2-0.1,0.1,0c0.5-0.3,0.9-0.6,1.2-0.8c9.2-6.5,14.8-16.5,16.7-30c0.9-6.5,0.6-12.4-0.9-18c-1.7-6.5-5-11.4-9.7-14.8
						c-4.3-3-9.3-4.5-14.9-4.5c-0.7,0-1.1,0-1.1,0c-1,0.1-1.8,0.1-2.3,0.2c-0.7,0.1-1.1,0.2-1.2,0.2c-0.8,0.1-1.5,0.2-2,0.3
						c-0.5,0.1-1,0.2-1.5,0.3c-0.1,0-0.4,0.1-0.8,0.2c-0.4,0.1-0.6,0.2-0.6,0.2c-1.5,0.4-3,0.8-4.4,1.3c-5.6,1.7-8.7,1.6-9.2-0.2
						c-0.4-1.5,2.3-3.2,7.9-4.8c9.7-3,18.5-4.4,26.4-4.3c6.9,0.1,12.9,1.7,18,4.7C371.4,348.7,375.3,353.4,377.6,359.5z"/>
				</g>
			</g>
			<g>
				<path class="st2" d="M231.9,475.4c-1.4,0.5-2.9,0.9-4.6,1.2c-2.2,0.5-4.3,0.7-6.1,0.7c-0.4,0-0.8,0-1.2,0
					c-1.6-0.1-2.8-0.3-3.9-0.7c-0.7-0.3-1.3-0.7-1.9-1.1l-102,0.7c-0.1,0.2-0.1,0.4-0.2,0.6c-0.9,3.3-3.9,5.1-6.8,6.4
					c-2.4,1.1-5.1,1.9-7.9,2.4c-2,0.4-3.7,0.6-5.2,0.6c-3.3,0-5.8-1-7.3-3.1c-1.4-1.8-1.8-4.1-1.2-6.4c0-0.1,0.1-0.2,0.1-0.4
					l-174.7,1.2l-4.1,12.6l418-7.2l4.8-8.3L231.9,475.4z"/>
			</g>
		</g>
	</g>
</g>
<g>
	<g>
		<path class="st0" d="M132,445.6c-0.1,0.1-0.1,0.1-0.2,0.1L132,445.6z M149.4,375.1C149.5,375.1,149.5,375.1,149.4,375.1
			C149.5,375.1,149.5,375.1,149.4,375.1"/>
	</g>
	<g>
		<g>
			<path class="st0" d="M186.6,279.4H99.5c-1.6,0-3-1.3-3.1-2.9l-3.8-65c0-0.8,0.3-1.7,0.8-2.3c0.6-0.6,1.4-1,2.2-1h110
				c1,0,1.9,0.5,2.4,1.2c0.6,0.8,0.8,1.8,0.5,2.7l-19.1,65C189.2,278.5,188,279.4,186.6,279.4z M102.4,273.3h81.9l17.3-58.9H99
				L102.4,273.3z"/>
		</g>
		<g>
			<path class="st0" d="M95.7,214.4c-1.5,0-2.8-1-3-2.5l-2.2-12.8h-15c-1.7,0-3.1-1.4-3.1-3.1s1.4-3.1,3.1-3.1h17.6
				c1.5,0,2.8,1.1,3,2.5l2.7,15.3c0.3,1.7-0.8,3.2-2.5,3.5C96.1,214.4,95.9,214.4,95.7,214.4z"/>
		</g>
		<g>
			<path class="st0" d="M101.5,309.5c-3.9,0-7.3-1.5-9.6-4.3c-2.4-2.8-3.3-6.5-2.6-10.4c1.3-7.6,8.4-13.6,16.1-13.6
				c3.9,0,7.3,1.5,9.6,4.3c2.4,2.8,3.3,6.5,2.6,10.4C116.3,303.6,109.2,309.5,101.5,309.5z M105.4,287.3c-4.6,0-9.2,3.9-10,8.6
				c-0.4,2.1,0.1,4,1.2,5.4c1.1,1.4,2.9,2.1,4.9,2.1c4.6,0,9.2-3.9,10-8.6c0,0,0,0,0,0c0.4-2.1-0.1-4-1.2-5.4
				C109.2,288.1,107.5,287.3,105.4,287.3z"/>
		</g>
		<g>
			<path class="st0" d="M175.5,309.5c-3.9,0-7.2-1.5-9.6-4.3c-2.4-2.8-3.3-6.5-2.6-10.4c1.3-7.6,8.4-13.6,16.1-13.6
				c3.9,0,7.3,1.5,9.6,4.3c2.4,2.8,3.3,6.5,2.6,10.4C190.3,303.6,183.2,309.5,175.5,309.5z M179.5,287.3c-4.6,0-9.2,3.9-10,8.6
				c-0.4,2.1,0.1,4,1.3,5.4c1.1,1.4,2.9,2.1,4.9,2.1c4.6,0,9.2-3.9,10.1-8.6c0,0,0,0,0,0c0.4-2.1-0.1-4-1.2-5.4
				C183.2,288.1,181.5,287.3,179.5,287.3z"/>
		</g>
		<g>
			<path class="st0" d="M113,279.4c-0.1,0-0.2,0-0.2,0c-1.7-0.1-2.9-1.6-2.8-3.3l4.9-62.8c0.1-1.7,1.6-2.9,3.3-2.8
				c1.7,0.1,2.9,1.6,2.8,3.3l-4.9,62.8C115.9,278.2,114.6,279.4,113,279.4z"/>
		</g>
		<g>
			<path class="st0" d="M132.8,279.4c-0.1,0-0.2,0-0.4,0c-1.7-0.2-2.9-1.7-2.7-3.4l7.5-62.8c0.2-1.7,1.7-2.9,3.4-2.7
				c1.7,0.2,2.9,1.7,2.7,3.4l-7.5,62.8C135.6,278.3,134.3,279.4,132.8,279.4z"/>
		</g>
		<g>
			<path class="st0" d="M152.6,279.4c-0.2,0-0.3,0-0.5,0c-1.7-0.3-2.8-1.8-2.5-3.5l10-62.8c0.3-1.7,1.8-2.8,3.5-2.5
				c1.7,0.3,2.8,1.8,2.5,3.5l-10,62.8C155.4,278.4,154.1,279.4,152.6,279.4z"/>
		</g>
		<g>
			<path class="st0" d="M172.4,279.4c-0.2,0-0.4,0-0.6-0.1c-1.7-0.3-2.7-1.9-2.4-3.6L182,213c0.3-1.7,1.9-2.7,3.6-2.4
				c1.7,0.3,2.7,1.9,2.4,3.6L175.4,277C175.1,278.4,173.9,279.4,172.4,279.4z"/>
		</g>
		<g>
			<path class="st0" d="M200,233.8H96.6c-1.7,0-3.1-1.4-3.1-3.1s1.4-3.1,3.1-3.1H200c1.7,0,3.1,1.4,3.1,3.1S201.7,233.8,200,233.8z"
				/>
		</g>
		<g>
			<path class="st0" d="M193.6,257.5H97.7c-1.7,0-3.1-1.4-3.1-3.1c0-1.7,1.4-3.1,3.1-3.1h95.9c1.7,0,3.1,1.4,3.1,3.1
				C196.7,256.2,195.3,257.5,193.6,257.5z"/>
		</g>
		<g>
			<defs>
				<rect id="SVGID_9_" x="97.4" y="156" width="108.2" height="48.7"/>
			</defs>
			<clipPath id="SVGID_10_">
				<use xlink:href="#SVGID_9_"  style="overflow:visible;"/>
			</clipPath>
			<g class="st7">
				<g>
					<defs>
						<rect id="SVGID_11_" x="101.2" y="161.1" width="46" height="58.6"/>
					</defs>
					<clipPath id="SVGID_12_">
						<use xlink:href="#SVGID_11_"  style="overflow:visible;"/>
					</clipPath>
					<g class="st8">
						<path class="st0" d="M147.1,204.5l-10.2-41.3c-0.2-0.8-0.7-1.4-1.4-1.7c-0.7-0.4-1.5-0.4-2.2-0.1l-30.5,12
							c-1.2,0.5-1.9,1.8-1.6,3.1l10.2,41.3c0.2,0.7,0.7,1.4,1.4,1.7c0.4,0.2,0.8,0.3,1.2,0.3c0.3,0,0.7-0.1,1-0.2l30.5-12
							C146.7,207.1,147.4,205.8,147.1,204.5"/>
					</g>
				</g>
			</g>
			<g class="st7">
				<g>
					<defs>
						<rect id="SVGID_13_" x="129.1" y="164.2" width="44.9" height="57.2"/>
					</defs>
					<clipPath id="SVGID_14_">
						<use xlink:href="#SVGID_13_"  style="overflow:visible;"/>
					</clipPath>
					<g class="st9">
						<path class="st0" d="M173.6,168.7c-0.4-0.6-1.1-1.1-1.8-1.2l-24.7-3.4c-1.2-0.2-2.4,0.6-2.8,1.8l-15.1,48.7
							c-0.2,0.7-0.1,1.5,0.3,2.1c0.4,0.6,1.1,1.1,1.8,1.2l24.7,3.4c0.1,0,0.2,0,0.4,0c1.1,0,2.1-0.7,2.4-1.8l15.1-48.7
							C174.1,170.2,174,169.4,173.6,168.7"/>
					</g>
				</g>
			</g>
			<g class="st7">
				<g>
					<defs>
						<rect id="SVGID_15_" x="151.7" y="177.5" width="46.1" height="41.1"/>
					</defs>
					<clipPath id="SVGID_16_">
						<use xlink:href="#SVGID_15_"  style="overflow:visible;"/>
					</clipPath>
					<g class="st10">
						<path class="st0" d="M197,178.2c-0.5-0.5-1.3-0.8-2-0.7l-38.9,4.2c-1.2,0.1-2.2,1.1-2.3,2.3l-2.2,31.9c0,0.7,0.2,1.5,0.8,2
							c0.5,0.5,1.1,0.7,1.8,0.7c0.1,0,0.2,0,0.3,0l38.9-4.2c1.2-0.1,2.2-1.1,2.3-2.4l2.1-31.9C197.9,179.5,197.6,178.7,197,178.2"/>
					</g>
				</g>
			</g>
		</g>
	</g>
	<g>
		<g>
			<polygon class="st0" points="333.4,480 361.6,479.8 366.4,471.5 338.2,471.7 			"/>
		</g>
		<g>
			<g>
				<path class="st0" d="M6.8,326.4c2,0.4,2.4,1.3,1,2.8c-0.9,1.1-2.1,1.9-3.7,2.6c-5.7,2.6-10.6,3.6-14.9,2.8
					c-4.2-0.9-8.6-1.5-13.2-1.9c-12.7,42.6-20.9,80.1-24.6,112.7c-0.3,2.8-3.9,4.9-10.9,6.2c-2.7,0.5-5.1,0.7-7.1,0.6
					c-2.2-0.1-3.2-0.5-3.2-1.1c3.8-34.4,12.6-74,26.2-118.9c-3.2,0.1-6.1,0.4-8.9,0.7c-2.2,0.3-4.1,0.5-5.6,0.8
					c-1.5,0.3-2.6,0.5-3.4,0.6c-0.1,0.1-0.3,0.1-0.4,0.1c-0.1,0.1-0.2,0.1-0.3,0.1c-7,1.7-10.7,1.5-11.2-0.4c-0.7-2.4,2.6-4.4,9.7-6
					c10-2.3,20.2-3.8,30.5-4.4c1.1-0.3,2.1-0.5,3.1-0.7c4.6-0.8,7.4-0.6,8.3,0.5C-11.9,323.6-2.4,324.6,6.8,326.4z"/>
			</g>
			<g>
				<path class="st0" d="M-17.3,377.3c0.1-0.7,1.2-1.5,3.4-2.5c2-0.9,4.1-1.6,6.5-2c4.8-0.9,7.1-0.4,6.8,1.5
					c-2.2,11.9-5,24.4-8.4,37.3c-1.7,6.2-3.4,12.3-5.2,18.4c-2.5,8.5-3.6,13.8-3.2,15.9c0.4,2-2.3,3.7-7.9,5.1
					c-5.6,1.4-8.6,1.2-9-0.6c-0.5-2.3,0.7-8.1,3.4-17.4c2-6.8,3.8-12.9,5.2-18.4C-22.2,401.4-19.4,389-17.3,377.3z M-19.3,354.1
					c-1.1-0.7-0.6-1.6,1.3-2.9c1.2-0.7,2.4-1.4,3.8-1.8c2.2-0.8,4.4-1.3,6.6-1.5c2.1-0.2,3.5,0,4.3,0.5c2.3,1.5,4.2,3.1,5.8,4.7
					c1.4,1.4-0.3,3-5.1,4.7c-2.2,0.8-4.4,1.3-6.6,1.5c-2.3,0.2-3.8,0.1-4.3-0.5C-15.1,357.2-17,355.7-19.3,354.1z"/>
			</g>
			<g>
				<path class="st0" d="M53.7,385.4c0.5,6.2-0.7,13.9-3.8,22.9c-0.4,1.1-2.2,2.2-5.4,3.4c-2.6,0.9-4.8,1.4-6.6,1.4
					c-1.2,0.1-4.4,0.1-9.8,0c-4.1,0-7.4,0.1-9.8,0.4c-0.8,4.2-1.4,9-1.7,14.2c-0.3,5.8-0.1,10.1,0.6,12.7c0.6,2.4,1.5,4.1,2.5,5
					c1.2-1,2.1-2,2.9-2.9c3.3-4.1,5.3-8.4,6-12.7c0.1-0.7,1.3-1.6,3.5-2.6c1.9-0.9,4.1-1.6,6.4-2c4.8-0.8,7.1-0.3,6.8,1.6
					c-1.2,6.9-4.9,12.9-11.1,18c-3.6,3-7.3,5.1-11.2,6.4c-6.5,2.2-11.5,2.8-15.1,1.9c-5.5-1.4-8.3-6.5-8.3-15.3
					c-0.1-5.4,0.4-11.6,1.4-18.5c1.9-12,4.6-21.1,8.1-27.3c2.3-5,4.8-8.9,7.7-11.8c4.2-4.1,9.8-6.8,16.8-8.1
					c7.6-1.4,12.8-0.6,15.6,2.2C51.9,376.9,53.4,380.6,53.7,385.4z M16.7,447.7c-0.1,0.1-0.1,0.1-0.2,0.1L16.7,447.7z M19.4,407.8
					c4-0.6,9.1-1,15.3-1.1c2-7.3,2.6-13.1,2.1-17.4c-0.5-4.9-1.8-8.2-3.9-9.8c-0.3-0.2-0.6-0.4-0.8-0.5c-0.3,0.3-0.4,0.3-0.2,0.2
					c-0.6,0.6-1.2,1.3-1.6,1.9c-1.3,1.8-2.4,3.7-3.4,5.6c-2.1,4.3-3.9,8.4-5.4,12.4C20.7,402,20,404.8,19.4,407.8z M34.1,377.2
					C34.2,377.2,34.2,377.2,34.1,377.2C34.2,377.2,34.2,377.2,34.1,377.2z"/>
			</g>
			<g>
				<path class="st0" d="M114.6,378.3c2.1,5.1,2.9,11.9,2.4,20.3c-0.4,5.9-1.4,13.4-2.9,22.3c-4.4,24.5-7.8,41.1-10.2,49.7
					c-0.2,0.7-1.3,1.5-3.5,2.5c-2,0.9-4.1,1.6-6.4,2c-5.1,1-7.4,0.4-6.8-1.5c2.4-8.6,5.7-24.8,10-48.8c3.1-17.2,3.8-29.4,2.1-36.6
					c-1.2,1.1-2.2,2.3-3.2,3.4c-3.8,4.6-7.5,10.6-11.4,18.3c-3.7,7.3-8.8,20.1-15.5,38.4c-0.6,1.7-3.6,3.1-9,4.2
					c-5.3,1.2-8,1-7.9-0.4c0.7-9.4,2.9-21.9,6.7-37.4c4.3-18,7-30.4,8-37.1c0.3-1.9,2.9-3.5,7.8-4.8c1.3-0.4,3-0.6,4.9-0.8
					c3-0.3,4.4,0.1,4.3,1c-0.9,5.9-2.3,12.8-4.1,20.8c1.3-1.6,2.7-3.2,4.1-4.5c6.4-6.1,14.2-10,23.5-11.8
					C111.7,376.7,114,377,114.6,378.3z"/>
			</g>
			<g>
				<path class="st0" d="M179.8,332.9c5.1-0.9,7.3-0.4,6.8,1.6c-3.9,12.8-11.7,50.2-23.5,112.4c-0.2,0.7-1.3,1.6-3.5,2.6
					c-2,0.9-4.1,1.6-6.4,2c-1.3,0.2-2.4,0.3-3.3,0.4c-8.9,3.8-16.4,4.1-22.6,0.9c-5.5-2.8-9-7.5-10.7-14c-2.4-9.3-1.6-20.8,2.5-34.4
					c4.4-14.7,11-24.5,19.7-29.5c5-2.9,10.2-4.6,15.8-5.2c2.6-0.3,5-0.1,7,0.6c2.6-12,5.5-22.9,8.5-32.9c0.2-0.7,1.4-1.6,3.4-2.6
					C175.2,334,177.4,333.3,179.8,332.9z M133.2,433.8c1.5,5.7,4.2,9.8,8.1,12.2c0.7,0.5,1.4,0.9,2.1,1.2l0.3-0.4
					c0.8-1.1,2.1-2,3.8-2.8c0.8-4.5,2.4-12.9,4.5-25.3c1.9-10.7,3.4-19.2,4.6-25.4c-1.9-0.1-2.8-0.4-2.9-1.2
					c-0.7-6.9-2.4-11.6-5.1-14c-0.2-0.2-0.3-0.3-0.4-0.3c-0.6,0.5-1.1,1-1.5,1.4c-5.3,5.7-9.4,14.3-12.2,25.8
					c-2.8,11.7-4.2,17.5-4.2,17.5S131.3,426.3,133.2,433.8z"/>
			</g>
			<g>
				<path class="st0" d="M228.6,339.7c2.2,0,3.3,0.3,3.3,1c0,13.4-0.8,33.4-2.3,60.1c-1.6,26.7-2.4,46.8-2.4,60.1
					c0,2.2-2.8,3.9-8.5,5.1c-2.2,0.5-4.2,0.7-5.9,0.6c-1.7-0.1-2.6-0.4-2.6-1c0-11.4,0.4-25.2,1.3-41.4c-2.8-0.5-6.9-0.4-12.3,0.2
					c-1.5,0.2-3.4,0.2-5.7,0.1c-2.1,6.5-4.2,13.5-6.3,20.9c-0.2,0.7-1.4,1.6-3.5,2.5c-2,1-4.1,1.6-6.4,2.1c-5.1,0.9-7.4,0.4-6.8-1.6
					c2.5-8.9,5-17.1,7.5-24.7c-0.5,0-1,0-1.4,0c-0.4,0-1.1,0.1-2.2,0.2c-3.7,2.1-7.5,3-11.5,2.9c-1.6-0.1-2.5-0.4-2.7-1.2
					c-0.2-0.8,0.4-1.6,1.7-2.5c5-3.1,11.1-5,18.3-5.9c2.9-8.3,6-16.2,9.2-23.6c1.4-3.2,3.3-7.5,5.7-13.1c2.8-6.2,4.7-10.6,5.8-13.1
					c6-13.7,9.8-21.6,11.4-23.5c1.6-2.2,5-3.7,9.9-4.6C225,338.8,227.2,338.9,228.6,339.7z M207.6,417.6c1.5-0.2,3-0.3,4.3-0.4
					c1.4-25.2,2.2-40.3,2.4-45.4c-4.2,9.5-7,15.8-8.3,18.8c-3.5,8.2-6.9,17-10.1,26.4C202.9,417.5,206.8,417.7,207.6,417.6z"/>
			</g>
			<g>
				<path class="st0" d="M309.1,356.5c4.2,11.3,3.3,23.4-2.7,36.2c-6.5,13.7-16.3,22.1-29.6,25.3c-6.6,1.6-12.3,2-17.2,1.3
					c-0.5,2.1-1.1,4.1-1.6,6c-3.5,12.3-5.5,20-5.7,23.3c-0.2,2.3-3.1,3.9-8.7,5c-2.2,0.4-4.1,0.5-5.7,0.5c-1.7-0.1-2.6-0.4-2.5-1
					c0.3-3.9,2.2-11.8,5.6-23.8c1.7-5.9,3.5-14.2,5.3-24.7c4.3-25.2,7.8-41.8,10.2-49.7c0.3-0.7,1.4-1.6,3.5-2.6
					c2-0.9,4.1-1.6,6.5-2c5.1-0.9,7.4-0.4,6.8,1.6c-2.5,7.9-5.8,24.1-10,48.6c-0.1,0.2-0.1,0.5-0.2,0.9c-0.1,0.4-0.2,0.7-0.2,1
					c0.7,0.2,1.1,0.5,1.2,1c0.6,5.5,3.5,8.6,8.7,9.5c0.6,0.1,1.4,0.2,2.1,0.2c0-0.1,0.2-0.1,0.6-0.1c0.2-0.1,0.3-0.1,0.4-0.2
					c0.2-0.1,0.2-0.1,0.1,0c0.5-0.3,0.9-0.6,1.2-0.8c9.2-6.5,14.8-16.5,16.7-30c0.9-6.5,0.6-12.4-0.9-18c-1.7-6.5-5-11.4-9.7-14.8
					c-4.3-3-9.3-4.5-14.9-4.5c-0.7,0-1.1,0-1.1,0c-1,0.1-1.8,0.1-2.3,0.2c-0.7,0.1-1.1,0.2-1.2,0.2c-0.8,0.1-1.5,0.2-2,0.3
					c-0.5,0.1-1,0.2-1.5,0.3c-0.1,0-0.4,0.1-0.8,0.2c-0.4,0.1-0.6,0.2-0.6,0.2c-1.5,0.4-3,0.8-4.4,1.3c-5.6,1.7-8.7,1.6-9.2-0.2
					c-0.4-1.5,2.3-3.2,7.9-4.8c9.7-3,18.5-4.4,26.4-4.3c6.9,0.1,12.9,1.7,18,4.7C302.9,345.7,306.8,350.4,309.1,356.5z"/>
			</g>
			<g>
				<path class="st0" d="M375.6,356.5c4.2,11.3,3.3,23.4-2.7,36.2c-6.5,13.7-16.3,22.1-29.6,25.3c-6.6,1.6-12.3,2-17.2,1.3
					c-0.5,2.1-1.1,4.1-1.6,6c-3.5,12.3-5.5,20-5.7,23.3c-0.2,2.3-3.1,3.9-8.7,5c-2.2,0.4-4.1,0.5-5.7,0.5c-1.7-0.1-2.6-0.4-2.5-1
					c0.3-3.9,2.2-11.8,5.6-23.8c1.7-5.9,3.5-14.2,5.3-24.7c4.3-25.2,7.8-41.8,10.2-49.7c0.3-0.7,1.4-1.6,3.5-2.6
					c2-0.9,4.1-1.6,6.5-2c5.1-0.9,7.4-0.4,6.8,1.6c-2.5,7.9-5.8,24.1-10,48.6c-0.1,0.2-0.1,0.5-0.2,0.9c-0.1,0.4-0.2,0.7-0.2,1
					c0.7,0.2,1.1,0.5,1.2,1c0.6,5.5,3.5,8.6,8.7,9.5c0.6,0.1,1.4,0.2,2.1,0.2c0-0.1,0.2-0.1,0.6-0.1c0.2-0.1,0.3-0.1,0.4-0.2
					c0.2-0.1,0.2-0.1,0.1,0c0.5-0.3,0.9-0.6,1.2-0.8c9.2-6.5,14.8-16.5,16.7-30c0.9-6.5,0.6-12.4-0.9-18c-1.7-6.5-5-11.4-9.7-14.8
					c-4.3-3-9.3-4.5-14.9-4.5c-0.7,0-1.1,0-1.1,0c-1,0.1-1.8,0.1-2.3,0.2c-0.7,0.1-1.1,0.2-1.2,0.2c-0.8,0.1-1.5,0.2-2,0.3
					c-0.5,0.1-1,0.2-1.5,0.3c-0.1,0-0.4,0.1-0.8,0.2c-0.4,0.1-0.6,0.2-0.6,0.2c-1.5,0.4-3,0.8-4.4,1.3c-5.6,1.7-8.7,1.6-9.2-0.2
					c-0.4-1.5,2.3-3.2,7.9-4.8c9.7-3,18.5-4.4,26.4-4.3c6.9,0.1,12.9,1.7,18,4.7C369.4,345.7,373.3,350.4,375.6,356.5z"/>
			</g>
		</g>
		<g>
			<path class="st0" d="M229.9,472.4c-1.4,0.5-2.9,0.9-4.6,1.2c-2.2,0.5-4.3,0.7-6.1,0.7c-0.4,0-0.8,0-1.2,0
				c-1.6-0.1-2.8-0.3-3.9-0.7c-0.7-0.3-1.3-0.7-1.9-1.1l-102,0.7c-0.1,0.2-0.1,0.4-0.2,0.6c-0.9,3.3-3.9,5.1-6.8,6.4
				c-2.4,1.1-5.1,1.9-7.9,2.4c-2,0.4-3.7,0.6-5.2,0.6c-3.3,0-5.8-1-7.3-3.1c-1.4-1.8-1.8-4.1-1.2-6.4c0-0.1,0.1-0.2,0.1-0.4
				l-174.7,1.2l-4.1,12.6l418-7.2l4.8-8.3L229.9,472.4z"/>
		</g>
	</g>
</g>
</svg>
